<!DOCTYPE svg PUBLIC "-//W3C//DTD SVG 1.1//EN" "http://www.w3.org/Graphics/SVG/1.1/DTD/svg11.dtd">
<!-- Uploaded to: SVG Repo, www.svgrepo.com, Transformed by: SVG Repo Mixer Tools -->
<svg fill="#185cb4" height="800px" width="800px" version="1.1" id="Layer_1" xmlns="http://www.w3.org/2000/svg" xmlns:xlink="http://www.w3.org/1999/xlink" viewBox="0 0 512 512" xml:space="preserve" transform="rotate(0)" stroke="#185cb4">
<g id="SVGRepo_bgCarrier" stroke-width="0"/>
<g id="SVGRepo_tracerCarrier" stroke-linecap="round" stroke-linejoin="round"/>
<g id="SVGRepo_iconCarrier"> <g> <g> <path d="M256,0c-76.462,0-138.724,61.923-139.293,138.253h278.586C394.724,61.923,332.462,0,256,0z M256,107.679 c-16.413,0-29.767-13.353-29.767-29.766c0-16.413,13.354-29.766,29.767-29.766s29.767,13.352,29.767,29.766 C285.767,94.326,272.413,107.679,256,107.679z"/> </g> </g> <g> <g> <path d="M55.558,171.645v249.07h61.136v29.542h122.611v28.351h-38.561V512h110.513v-33.391h-38.56v-28.351h122.611v-29.542h61.136 v-249.07H55.558z M116.694,387.324H88.949V205.036h27.745V387.324z M423.051,387.324h-27.745V205.036h27.745V387.324z"/> </g> </g> </g>
</svg>