<!DOCTYPE svg PUBLIC "-//W3C//DTD SVG 1.1//EN" "http://www.w3.org/Graphics/SVG/1.1/DTD/svg11.dtd">
<!-- Uploaded to: SVG Repo, www.svgrepo.com, Transformed by: SVG Repo Mixer Tools -->
<svg fill="#234995" version="1.1" id="Capa_1" xmlns="http://www.w3.org/2000/svg" xmlns:xlink="http://www.w3.org/1999/xlink" width="800px" height="800px" viewBox="0 0 32 32" xml:space="preserve" stroke="#234995">
<g id="SVGRepo_bgCarrier" stroke-width="0"/>
<g id="SVGRepo_tracerCarrier" stroke-linecap="round" stroke-linejoin="round"/>
<g id="SVGRepo_iconCarrier"> <g> <g> <circle cx="13.313" cy="8.455" r="0.718"/> <path d="M15.904,12.792c0.032,0,0.064-0.001,0.097-0.001c0.032,0,0.064,0.001,0.096,0.001c3.654,0,6.617-1.788,6.617-3.992 c0-1.819-2.018-3.353-4.773-3.834c-0.018-0.612-0.73-1.116-1.665-1.216V1.811c0.385-0.112,0.668-0.464,0.668-0.885 C16.944,0.415,16.53,0,16.019,0C16.012,0,16.007,0.002,16,0.002C15.993,0.002,15.987,0,15.98,0c-0.511,0-0.925,0.415-0.925,0.926 c0,0.421,0.283,0.773,0.668,0.885V3.75c-0.934,0.1-1.646,0.604-1.664,1.215C11.303,5.447,9.286,6.981,9.286,8.8 C9.286,11.004,12.249,12.792,15.904,12.792z M18.687,7.101c0.748,0,1.354,0.606,1.354,1.354s-0.606,1.354-1.354,1.354 s-1.354-0.606-1.354-1.354S17.938,7.101,18.687,7.101z M13.313,7.101c0.748,0,1.354,0.606,1.354,1.354s-0.606,1.354-1.354,1.354 c-0.749,0-1.354-0.606-1.354-1.354S12.565,7.101,13.313,7.101z"/> <circle cx="18.687" cy="8.455" r="0.718"/> <path d="M23.971,23.705h-0.028v-0.663h-0.221v-9.504h-2.003v0.332h-1.133v-0.332H16h-4.587v0.332H10.28v-0.332H8.278v9.504H8.057 v0.663H8.029H7.716v1.824h0.835v-0.912h1.515v0.912h0.836v-1.824h-0.4v-0.663H10.28v-8.15h1.133v8.813h3.758v2.809 c-3.353,0.239-5.932,1.689-5.932,3.444c0.208,0,0.448,0,0.708,0c-0.003,0.048-0.007,0.097-0.007,0.146 c0,1.045,0.852,1.896,1.898,1.896s1.897-0.852,1.897-1.896c0-0.049-0.004-0.097-0.007-0.146c0.134,0,0.269,0,0.405,0 c-0.003,0.048-0.007,0.097-0.007,0.146c0,1.039,0.839,1.883,1.875,1.896c1.035-0.013,1.875-0.856,1.875-1.896 c0-0.049-0.003-0.097-0.008-0.146c0.137,0,0.271,0,0.406,0c-0.004,0.048-0.008,0.097-0.008,0.146c0,1.045,0.852,1.896,1.897,1.896 s1.897-0.852,1.897-1.896c0-0.049-0.005-0.097-0.009-0.146c0.261,0,0.5,0,0.708,0c0-1.755-2.58-3.205-5.932-3.444v-2.809h3.758 v-8.813h1.133v8.15h-0.221v0.663h-0.401v1.824h0.836v-0.912h1.515v0.912h0.836v-1.824H23.971z M13.665,21.232h-0.704V20.5h0.705 L13.665,21.232L13.665,21.232z M13.665,20.184h-0.704v-0.732h0.705L13.665,20.184L13.665,20.184z M14.743,21.232h-0.705V20.5 h0.705V21.232z M14.743,20.184h-0.705v-0.732h0.705V20.184z M15.164,21.232V20.5h0.705v0.732H15.164z M15.869,20.184h-0.705 v-0.732h0.705V20.184z M13.071,30.104c0,0.681-0.554,1.233-1.234,1.233c-0.681,0-1.234-0.553-1.234-1.233 c0-0.049,0.003-0.098,0.009-0.146c0.716,0,1.551,0,2.45,0C13.068,30.006,13.071,30.055,13.071,30.104z M17.212,30.104 c0,0.672-0.542,1.221-1.212,1.232c-0.67-0.012-1.212-0.561-1.212-1.232c0-0.049,0.003-0.098,0.009-0.146c0.398,0,0.801,0,1.203,0 c0.402,0,0.804,0,1.202,0C17.208,30.006,17.212,30.055,17.212,30.104z M21.397,30.104c0,0.681-0.555,1.233-1.234,1.233 s-1.234-0.553-1.234-1.233c0-0.049,0.003-0.098,0.01-0.146c0.898,0,1.733,0,2.448,0C21.393,30.006,21.397,30.055,21.397,30.104z M16.836,21.232h-0.705V20.5h0.705V21.232z M16.836,20.184h-0.705v-0.732h0.705V20.184z M17.962,21.232h-0.705V20.5h0.705V21.232z M17.962,20.184h-0.705v-0.732h0.705V20.184z M19.039,21.232h-0.705V20.5h0.705V21.232z M19.039,20.184h-0.705v-0.732h0.705 V20.184z M19.039,18.336H16h-3.04v-2.579H16h3.039V18.336z"/> </g> </g> </g>
</svg>